<?xml version="1.0" encoding="utf-8"?>
<!-- Generator: Adobe Illustrator 27.5.0, SVG Export Plug-In . SVG Version: 6.00 Build 0)  -->
<svg version="1.1" id="圖層_1" xmlns="http://www.w3.org/2000/svg" xmlns:xlink="http://www.w3.org/1999/xlink" x="0px" y="0px"
	 viewBox="0 0 1920 692.6" style="enable-background:new 0 0 1920 692.6;" xml:space="preserve">
<style type="text/css">
	.st0{clip-path:url(#SVGID_00000139269007050788513110000015067178403692515985_);}
	.st1{fill:#2C2C61;}
	.st2{fill:#FFFFFF;}
</style>
<g>
	<g>
		<defs>
			<rect id="SVGID_1_" y="-28.3" width="1920" height="803"/>
		</defs>
		<clipPath id="SVGID_00000068639530380051380440000002908154701203980694_">
			<use xlink:href="#SVGID_1_"  style="overflow:visible;"/>
		</clipPath>
		<g style="clip-path:url(#SVGID_00000068639530380051380440000002908154701203980694_);">
			<rect x="-28" y="297.7" class="st1" width="1975" height="394.9"/>
			<g>
				<g>
					
						<rect x="76" y="216.4" transform="matrix(0.832 -0.5547 0.5547 0.832 -88.0561 210.6191)" class="st1" width="455.5" height="68.6"/>
				</g>
				<g>
					
						<rect x="612.6" y="23" transform="matrix(0.5412 -0.8409 0.8409 0.5412 85.943 659.0905)" class="st1" width="68.6" height="455.6"/>
				</g>
				<g>
					
						<rect x="1148.6" y="50.9" transform="matrix(0.3787 -0.9255 0.9255 0.3787 477.0256 1267.9142)" class="st1" width="68.6" height="455.5"/>
				</g>
				<g>
					
						<rect x="573.7" y="268.6" transform="matrix(0.8683 -0.496 0.496 0.8683 -44.6925 437.4262)" class="st1" width="455.5" height="68.6"/>
				</g>
				<g>
					
						<rect x="1271.4" y="202.5" transform="matrix(0.8169 -0.5768 0.5768 0.8169 137.9108 908.0657)" class="st1" width="455.6" height="68.6"/>
				</g>
				<circle class="st1" cx="468.6" cy="137.6" r="54.7"/>
				<circle class="st1" cx="988.1" cy="192.4" r="54.7"/>
				<circle class="st2" cx="468.6" cy="137.6" r="43.4"/>
				<circle class="st2" cx="988.1" cy="192.4" r="43.4"/>
				<polygon class="st1" points="1625.3,73.7 1706.7,167.9 1747.5,50.2 				"/>
			</g>
		</g>
	</g>
</g>
</svg>
